G04 #@! TF.FileFunction,Legend,Bot*
%FSLAX46Y46*%
G04 Gerber Fmt 4.6, Leading zero omitted, Abs format (unit mm)*
G04 Created by KiCad (PCBNEW 4.0.6) date 05/08/17 22:23:47*
%MOMM*%
%LPD*%
G01*
G04 APERTURE LIST*
%ADD10C,0.100000*%
%ADD11C,0.150000*%
%ADD12C,0.120000*%
G04 APERTURE END LIST*
D10*
D11*
X198124071Y-101731572D02*
X199624071Y-102231572D01*
X198124071Y-102731572D01*
X199052643Y-104374429D02*
X199052643Y-105517286D01*
X199052643Y-107374429D02*
X199052643Y-108517286D01*
X199624071Y-107945857D02*
X198481214Y-107945857D01*
X198195500Y-111160143D02*
X198124071Y-111017286D01*
X198124071Y-110803000D01*
X198195500Y-110588715D01*
X198338357Y-110445857D01*
X198481214Y-110374429D01*
X198766929Y-110303000D01*
X198981214Y-110303000D01*
X199266929Y-110374429D01*
X199409786Y-110445857D01*
X199552643Y-110588715D01*
X199624071Y-110803000D01*
X199624071Y-110945857D01*
X199552643Y-111160143D01*
X199481214Y-111231572D01*
X198981214Y-111231572D01*
X198981214Y-110945857D01*
X144434643Y-94219000D02*
X144506071Y-94433286D01*
X144506071Y-94790429D01*
X144434643Y-94933286D01*
X144363214Y-95004715D01*
X144220357Y-95076143D01*
X144077500Y-95076143D01*
X143934643Y-95004715D01*
X143863214Y-94933286D01*
X143791786Y-94790429D01*
X143720357Y-94504715D01*
X143648929Y-94361857D01*
X143577500Y-94290429D01*
X143434643Y-94219000D01*
X143291786Y-94219000D01*
X143148929Y-94290429D01*
X143077500Y-94361857D01*
X143006071Y-94504715D01*
X143006071Y-94861857D01*
X143077500Y-95076143D01*
X144506071Y-95719000D02*
X143006071Y-95719000D01*
X143006071Y-96290428D01*
X143077500Y-96433286D01*
X143148929Y-96504714D01*
X143291786Y-96576143D01*
X143506071Y-96576143D01*
X143648929Y-96504714D01*
X143720357Y-96433286D01*
X143791786Y-96290428D01*
X143791786Y-95719000D01*
X143720357Y-97219000D02*
X143720357Y-97719000D01*
X144506071Y-97933286D02*
X144506071Y-97219000D01*
X143006071Y-97219000D01*
X143006071Y-97933286D01*
X144077500Y-98504714D02*
X144077500Y-99219000D01*
X144506071Y-98361857D02*
X143006071Y-98861857D01*
X144506071Y-99361857D01*
X144506071Y-99861857D02*
X143006071Y-99861857D01*
X144506071Y-100719000D02*
X143648929Y-100076143D01*
X143006071Y-100719000D02*
X143863214Y-99861857D01*
X143720357Y-101361857D02*
X143720357Y-101861857D01*
X144506071Y-102076143D02*
X144506071Y-101361857D01*
X143006071Y-101361857D01*
X143006071Y-102076143D01*
X144506071Y-103576143D02*
X143791786Y-103076143D01*
X144506071Y-102719000D02*
X143006071Y-102719000D01*
X143006071Y-103290428D01*
X143077500Y-103433286D01*
X143148929Y-103504714D01*
X143291786Y-103576143D01*
X143506071Y-103576143D01*
X143648929Y-103504714D01*
X143720357Y-103433286D01*
X143791786Y-103290428D01*
X143791786Y-102719000D01*
X141894643Y-94219000D02*
X141966071Y-94433286D01*
X141966071Y-94790429D01*
X141894643Y-94933286D01*
X141823214Y-95004715D01*
X141680357Y-95076143D01*
X141537500Y-95076143D01*
X141394643Y-95004715D01*
X141323214Y-94933286D01*
X141251786Y-94790429D01*
X141180357Y-94504715D01*
X141108929Y-94361857D01*
X141037500Y-94290429D01*
X140894643Y-94219000D01*
X140751786Y-94219000D01*
X140608929Y-94290429D01*
X140537500Y-94361857D01*
X140466071Y-94504715D01*
X140466071Y-94861857D01*
X140537500Y-95076143D01*
X140466071Y-96004714D02*
X140466071Y-96290428D01*
X140537500Y-96433286D01*
X140680357Y-96576143D01*
X140966071Y-96647571D01*
X141466071Y-96647571D01*
X141751786Y-96576143D01*
X141894643Y-96433286D01*
X141966071Y-96290428D01*
X141966071Y-96004714D01*
X141894643Y-95861857D01*
X141751786Y-95719000D01*
X141466071Y-95647571D01*
X140966071Y-95647571D01*
X140680357Y-95719000D01*
X140537500Y-95861857D01*
X140466071Y-96004714D01*
X140466071Y-97290429D02*
X141680357Y-97290429D01*
X141823214Y-97361857D01*
X141894643Y-97433286D01*
X141966071Y-97576143D01*
X141966071Y-97861857D01*
X141894643Y-98004715D01*
X141823214Y-98076143D01*
X141680357Y-98147572D01*
X140466071Y-98147572D01*
X141966071Y-98861858D02*
X140466071Y-98861858D01*
X141966071Y-99719001D01*
X140466071Y-99719001D01*
X141966071Y-100433287D02*
X140466071Y-100433287D01*
X140466071Y-100790430D01*
X140537500Y-101004715D01*
X140680357Y-101147573D01*
X140823214Y-101219001D01*
X141108929Y-101290430D01*
X141323214Y-101290430D01*
X141608929Y-101219001D01*
X141751786Y-101147573D01*
X141894643Y-101004715D01*
X141966071Y-100790430D01*
X141966071Y-100433287D01*
X142108929Y-101576144D02*
X142108929Y-102719001D01*
X141823214Y-103933287D02*
X141894643Y-103861858D01*
X141966071Y-103647572D01*
X141966071Y-103504715D01*
X141894643Y-103290430D01*
X141751786Y-103147572D01*
X141608929Y-103076144D01*
X141323214Y-103004715D01*
X141108929Y-103004715D01*
X140823214Y-103076144D01*
X140680357Y-103147572D01*
X140537500Y-103290430D01*
X140466071Y-103504715D01*
X140466071Y-103647572D01*
X140537500Y-103861858D01*
X140608929Y-103933287D01*
X141537500Y-104504715D02*
X141537500Y-105219001D01*
X141966071Y-104361858D02*
X140466071Y-104861858D01*
X141966071Y-105361858D01*
X141966071Y-106719001D02*
X141251786Y-106219001D01*
X141966071Y-105861858D02*
X140466071Y-105861858D01*
X140466071Y-106433286D01*
X140537500Y-106576144D01*
X140608929Y-106647572D01*
X140751786Y-106719001D01*
X140966071Y-106719001D01*
X141108929Y-106647572D01*
X141180357Y-106576144D01*
X141251786Y-106433286D01*
X141251786Y-105861858D01*
X141966071Y-107361858D02*
X140466071Y-107361858D01*
X140466071Y-107719001D01*
X140537500Y-107933286D01*
X140680357Y-108076144D01*
X140823214Y-108147572D01*
X141108929Y-108219001D01*
X141323214Y-108219001D01*
X141608929Y-108147572D01*
X141751786Y-108076144D01*
X141894643Y-107933286D01*
X141966071Y-107719001D01*
X141966071Y-107361858D01*
X137989571Y-94290428D02*
X139203857Y-94290428D01*
X139346714Y-94361856D01*
X139418143Y-94433285D01*
X139489571Y-94576142D01*
X139489571Y-94861856D01*
X139418143Y-95004714D01*
X139346714Y-95076142D01*
X139203857Y-95147571D01*
X137989571Y-95147571D01*
X139418143Y-95790428D02*
X139489571Y-96004714D01*
X139489571Y-96361857D01*
X139418143Y-96504714D01*
X139346714Y-96576143D01*
X139203857Y-96647571D01*
X139061000Y-96647571D01*
X138918143Y-96576143D01*
X138846714Y-96504714D01*
X138775286Y-96361857D01*
X138703857Y-96076143D01*
X138632429Y-95933285D01*
X138561000Y-95861857D01*
X138418143Y-95790428D01*
X138275286Y-95790428D01*
X138132429Y-95861857D01*
X138061000Y-95933285D01*
X137989571Y-96076143D01*
X137989571Y-96433285D01*
X138061000Y-96647571D01*
X138703857Y-97790428D02*
X138775286Y-98004714D01*
X138846714Y-98076142D01*
X138989571Y-98147571D01*
X139203857Y-98147571D01*
X139346714Y-98076142D01*
X139418143Y-98004714D01*
X139489571Y-97861856D01*
X139489571Y-97290428D01*
X137989571Y-97290428D01*
X137989571Y-97790428D01*
X138061000Y-97933285D01*
X138132429Y-98004714D01*
X138275286Y-98076142D01*
X138418143Y-98076142D01*
X138561000Y-98004714D01*
X138632429Y-97933285D01*
X138703857Y-97790428D01*
X138703857Y-97290428D01*
X136822571Y-94290428D02*
X135322571Y-94290428D01*
X136394000Y-94790428D01*
X135322571Y-95290428D01*
X136822571Y-95290428D01*
X135322571Y-96290428D02*
X135322571Y-96576142D01*
X135394000Y-96719000D01*
X135536857Y-96861857D01*
X135822571Y-96933285D01*
X136322571Y-96933285D01*
X136608286Y-96861857D01*
X136751143Y-96719000D01*
X136822571Y-96576142D01*
X136822571Y-96290428D01*
X136751143Y-96147571D01*
X136608286Y-96004714D01*
X136322571Y-95933285D01*
X135822571Y-95933285D01*
X135536857Y-96004714D01*
X135394000Y-96147571D01*
X135322571Y-96290428D01*
X136822571Y-97576143D02*
X135322571Y-97576143D01*
X135322571Y-97933286D01*
X135394000Y-98147571D01*
X135536857Y-98290429D01*
X135679714Y-98361857D01*
X135965429Y-98433286D01*
X136179714Y-98433286D01*
X136465429Y-98361857D01*
X136608286Y-98290429D01*
X136751143Y-98147571D01*
X136822571Y-97933286D01*
X136822571Y-97576143D01*
X136036857Y-99076143D02*
X136036857Y-99576143D01*
X136822571Y-99790429D02*
X136822571Y-99076143D01*
X135322571Y-99076143D01*
X135322571Y-99790429D01*
X210446881Y-103790977D02*
X209970690Y-103457643D01*
X210446881Y-103219548D02*
X209446881Y-103219548D01*
X209446881Y-103600501D01*
X209494500Y-103695739D01*
X209542119Y-103743358D01*
X209637357Y-103790977D01*
X209780214Y-103790977D01*
X209875452Y-103743358D01*
X209923071Y-103695739D01*
X209970690Y-103600501D01*
X209970690Y-103219548D01*
X210065929Y-104219548D02*
X210065929Y-104981453D01*
X210446881Y-106790977D02*
X209970690Y-106457643D01*
X210446881Y-106219548D02*
X209446881Y-106219548D01*
X209446881Y-106600501D01*
X209494500Y-106695739D01*
X209542119Y-106743358D01*
X209637357Y-106790977D01*
X209780214Y-106790977D01*
X209875452Y-106743358D01*
X209923071Y-106695739D01*
X209970690Y-106600501D01*
X209970690Y-106219548D01*
X210065929Y-107219548D02*
X210065929Y-107981453D01*
X210446881Y-107600501D02*
X209684976Y-107600501D01*
X113228381Y-103759215D02*
X113228381Y-103283024D01*
X112228381Y-103283024D01*
X112847429Y-104092548D02*
X112847429Y-104854453D01*
X113228381Y-104473501D02*
X112466476Y-104473501D01*
X113228381Y-106568739D02*
X113228381Y-106092548D01*
X112228381Y-106092548D01*
X112847429Y-106902072D02*
X112847429Y-107663977D01*
D12*
X133747586Y-85560961D02*
X133747586Y-91100961D01*
X133747586Y-91100961D02*
X145707586Y-91100961D01*
X145707586Y-91100961D02*
X145707586Y-85560961D01*
X145707586Y-85560961D02*
X137187586Y-85560961D01*
X135282586Y-86520961D02*
X136552586Y-86520961D01*
X136552586Y-86520961D02*
X136552586Y-90140961D01*
X136552586Y-90140961D02*
X135282586Y-90140961D01*
X135282586Y-90140961D02*
X135282586Y-86520961D01*
X135282586Y-88330961D02*
X136552586Y-88330961D01*
X137822586Y-86520961D02*
X139092586Y-86520961D01*
X139092586Y-86520961D02*
X139092586Y-90140961D01*
X139092586Y-90140961D02*
X137822586Y-90140961D01*
X137822586Y-90140961D02*
X137822586Y-86520961D01*
X137822586Y-88330961D02*
X139092586Y-88330961D01*
X140362586Y-86520961D02*
X141632586Y-86520961D01*
X141632586Y-86520961D02*
X141632586Y-90140961D01*
X141632586Y-90140961D02*
X140362586Y-90140961D01*
X140362586Y-90140961D02*
X140362586Y-86520961D01*
X140362586Y-88330961D02*
X141632586Y-88330961D01*
X142902586Y-86520961D02*
X144172586Y-86520961D01*
X144172586Y-86520961D02*
X144172586Y-90140961D01*
X144172586Y-90140961D02*
X142902586Y-90140961D01*
X142902586Y-90140961D02*
X142902586Y-86520961D01*
X142902586Y-88330961D02*
X144172586Y-88330961D01*
M02*
