M48
;DRILL file {KiCad 4.0.6} date 05/08/17 22:24:19
;FORMAT={-:-/ absolute / inch / decimal}
FMAT,2
INCH,TZ
T1C0.031
T2C0.039
T3C0.047
%
G90
G05
M72
T1
X5.3511Y-3.3276
X5.3511Y-3.6276
X5.4511Y-3.3276
X5.4511Y-3.6276
X5.5511Y-3.3276
X5.5511Y-3.6276
X5.6511Y-3.3276
X5.6511Y-3.6276
T2
X4.34Y-4.1025
X4.34Y-4.2025
X5.1511Y-4.045
X5.1511Y-4.145
X5.1511Y-4.245
X5.3511Y-3.2085
X5.4511Y-3.2085
X5.5511Y-3.2085
X5.6511Y-3.2085
X5.7511Y-3.2085
X5.8511Y-3.2085
X5.9511Y-3.2085
X6.0511Y-3.2085
X6.1511Y-3.2085
X6.2511Y-3.2085
X6.3511Y-3.2085
X6.4511Y-3.2085
X6.5511Y-3.2085
X6.6511Y-3.2085
X6.7511Y-3.2085
X6.8511Y-3.2085
X7.755Y-4.0572
X7.755Y-4.0572
X7.755Y-4.1556
X7.755Y-4.1556
X7.755Y-4.2344
X7.755Y-4.2344
X7.755Y-4.3328
X7.755Y-4.3328
X7.915Y-4.045
X7.915Y-4.145
X7.915Y-4.245
X7.915Y-4.345
X8.1625Y-4.1075
X8.1625Y-4.2075
T2
X7.44Y-3.943G85X7.4912Y-3.943
G05
X7.44Y-4.447G85X7.4912Y-4.447
G05
X7.7274Y-3.943G85X7.6763Y-3.943
G05
X7.7274Y-4.447G85X7.6763Y-4.447
G05
T3
X7.6802Y-3.8997G85X7.6093Y-3.8997
G05
X7.6802Y-4.4903G85X7.6093Y-4.4903
G05
T0
M30
