G04 #@! TF.FileFunction,Copper,L2,Bot,Signal*
%FSLAX46Y46*%
G04 Gerber Fmt 4.6, Leading zero omitted, Abs format (unit mm)*
G04 Created by KiCad (PCBNEW 4.0.6) date 05/08/17 22:23:47*
%MOMM*%
%LPD*%
G01*
G04 APERTURE LIST*
%ADD10C,0.100000*%
%ADD11C,1.500000*%
%ADD12C,3.000000*%
%ADD13O,4.500000X3.000000*%
%ADD14C,1.700000*%
%ADD15O,1.700000X1.700000*%
%ADD16R,1.700000X1.700000*%
%ADD17C,1.600000*%
%ADD18O,1.600000X1.600000*%
%ADD19C,0.250000*%
%ADD20C,1.000000*%
%ADD21C,0.254000*%
G04 APERTURE END LIST*
D10*
D11*
X196977000Y-110053000D03*
X196977000Y-107553000D03*
X196977000Y-105553000D03*
X196977000Y-103053000D03*
D12*
X195627000Y-112953000D03*
X195627000Y-100153000D03*
X189627000Y-112953000D03*
X189627000Y-100153000D03*
D11*
X196977000Y-110053000D03*
X196977000Y-107553000D03*
X196977000Y-105553000D03*
X196977000Y-103053000D03*
D13*
X194177000Y-114053000D03*
X194177000Y-99053000D03*
D14*
X130837586Y-102743000D03*
D15*
X130837586Y-105283000D03*
X130837586Y-107823000D03*
D14*
X135917586Y-81496683D03*
D15*
X138457586Y-81496683D03*
X140997586Y-81496683D03*
D14*
X143537586Y-81496683D03*
D15*
X146077586Y-81496683D03*
X148617586Y-81496683D03*
X151157586Y-81496683D03*
X153697586Y-81496683D03*
X156237586Y-81496683D03*
X158777586Y-81496683D03*
X161317586Y-81496683D03*
X163857586Y-81496683D03*
X166397586Y-81496683D03*
X168937586Y-81496683D03*
X171477586Y-81496683D03*
X174017586Y-81496683D03*
D14*
X201041000Y-102743000D03*
D15*
X201041000Y-105283000D03*
X201041000Y-107823000D03*
X201041000Y-110363000D03*
D16*
X207327500Y-104330500D03*
D15*
X207327500Y-106870500D03*
D16*
X110236000Y-106743500D03*
D15*
X110236000Y-104203500D03*
D17*
X135917586Y-84520961D03*
D18*
X143537586Y-92140961D03*
X138457586Y-84520961D03*
X140997586Y-92140961D03*
X140997586Y-84520961D03*
X138457586Y-92140961D03*
X143537586Y-84520961D03*
X135917586Y-92140961D03*
D19*
X174017586Y-81496683D02*
X166802637Y-88711632D01*
X166802637Y-88711632D02*
X140108257Y-88711632D01*
X140108257Y-88711632D02*
X135917586Y-84520961D01*
X171477586Y-81496683D02*
X164712648Y-88261621D01*
X164712648Y-88261621D02*
X142198246Y-88261621D01*
X142198246Y-88261621D02*
X138457586Y-84520961D01*
X168937586Y-81496683D02*
X162622659Y-87811610D01*
X162622659Y-87811610D02*
X144288235Y-87811610D01*
X144288235Y-87811610D02*
X140997586Y-84520961D01*
X166397586Y-81496683D02*
X160532670Y-87361599D01*
X160532670Y-87361599D02*
X146378224Y-87361599D01*
X146378224Y-87361599D02*
X143537586Y-84520961D01*
X158777586Y-81496683D02*
X160640894Y-79633375D01*
X160640894Y-79633375D02*
X175284599Y-79633375D01*
X175284599Y-79633375D02*
X175906334Y-80255110D01*
X175906334Y-80255110D02*
X175906334Y-105164339D01*
X175906334Y-105164339D02*
X178294995Y-107553000D01*
X178294995Y-107553000D02*
X196977000Y-107553000D01*
X156237586Y-81496683D02*
X158550905Y-79183364D01*
X158550905Y-79183364D02*
X175470999Y-79183364D01*
X175470999Y-79183364D02*
X176356345Y-80068710D01*
X176356345Y-101417604D02*
X180491741Y-105553000D01*
X180491741Y-105553000D02*
X196977000Y-105553000D01*
X176356345Y-80068710D02*
X176356345Y-101417604D01*
D20*
X153697586Y-81496683D02*
X157412393Y-77781876D01*
X157412393Y-77781876D02*
X176314696Y-77781876D01*
X176314696Y-77781876D02*
X178008308Y-79475488D01*
X178008308Y-79475488D02*
X178008308Y-97435029D01*
X178008308Y-97435029D02*
X183626279Y-103053000D01*
X183626279Y-103053000D02*
X196977000Y-103053000D01*
D19*
X143537586Y-81496683D02*
X140924433Y-78883530D01*
X140924433Y-78883530D02*
X133909200Y-78883530D01*
X133909200Y-78883530D02*
X131652033Y-81140697D01*
X131652033Y-81140697D02*
X131652033Y-91214015D01*
X131652033Y-91214015D02*
X128042316Y-94823732D01*
X128042316Y-94823732D02*
X128042314Y-99036506D01*
X128042314Y-99036506D02*
X120335320Y-106743500D01*
X120335320Y-106743500D02*
X110236000Y-106743500D01*
X146077586Y-81496683D02*
X143014423Y-78433520D01*
X143014423Y-78433520D02*
X133722800Y-78433520D01*
X133722800Y-78433520D02*
X131202022Y-80954298D01*
X131202022Y-80954298D02*
X131202022Y-86856978D01*
X131202022Y-86856978D02*
X131202019Y-86856981D01*
X131202019Y-86856981D02*
X131202018Y-87005831D01*
X131202018Y-87005831D02*
X131202018Y-91027620D01*
X131202018Y-91027620D02*
X127592306Y-94637332D01*
X127592306Y-94637332D02*
X127592305Y-98850105D01*
X127592305Y-98850105D02*
X122238910Y-104203500D01*
X122238910Y-104203500D02*
X110236000Y-104203500D01*
X207327500Y-104330500D02*
X206945090Y-104330500D01*
X173731900Y-117469490D02*
X167508900Y-111246490D01*
X206945090Y-104330500D02*
X204851000Y-106424590D01*
X204851000Y-106424590D02*
X204851000Y-110806090D01*
X198187600Y-117469490D02*
X173731900Y-117469490D01*
X107754520Y-107877173D02*
X107754520Y-102797642D01*
X204851000Y-110806090D02*
X198187600Y-117469490D01*
X127142296Y-94450932D02*
X130752009Y-90841219D01*
X167508900Y-111246490D02*
X111123837Y-111246490D01*
X130752011Y-86360000D02*
X130752011Y-80767899D01*
X111123837Y-111246490D02*
X107754520Y-107877173D01*
X130752009Y-90841219D02*
X130752009Y-86819430D01*
X109539986Y-101012176D02*
X124793824Y-101012176D01*
X107754520Y-102797642D02*
X109539986Y-101012176D01*
X124793824Y-101012176D02*
X127142296Y-98663704D01*
X127142296Y-98663704D02*
X127142296Y-94450932D01*
X130752009Y-86819430D02*
X130752011Y-86360000D01*
X130752011Y-80767899D02*
X133536400Y-77983510D01*
X133536400Y-77983510D02*
X145104413Y-77983510D01*
X145104413Y-77983510D02*
X148617586Y-81496683D01*
X207327500Y-106870500D02*
X207327500Y-108966000D01*
X198374000Y-117919500D02*
X173545500Y-117919500D01*
X126692286Y-94264532D02*
X130302000Y-90654818D01*
X207327500Y-108966000D02*
X198374000Y-117919500D01*
X109353586Y-100562165D02*
X124607425Y-100562165D01*
X130302000Y-90654818D02*
X130302000Y-80581500D01*
X130302000Y-80581500D02*
X133350000Y-77533500D01*
X173545500Y-117919500D02*
X167322500Y-111696500D01*
X167322500Y-111696500D02*
X110937437Y-111696500D01*
X110937437Y-111696500D02*
X107304509Y-108063573D01*
X107304509Y-102611242D02*
X109353586Y-100562165D01*
X126692286Y-98477304D02*
X126692286Y-94264532D01*
X133350000Y-77533500D02*
X147194403Y-77533500D01*
X107304509Y-108063573D02*
X107304509Y-102611242D01*
X124607425Y-100562165D02*
X126692286Y-98477304D01*
X147194403Y-77533500D02*
X151157586Y-81496683D01*
X130837586Y-97220961D02*
X130837586Y-102743000D01*
X130837586Y-97220961D02*
X130837587Y-93937692D01*
X130837587Y-93937692D02*
X133002063Y-91773216D01*
X133002063Y-91773216D02*
X133002063Y-84412206D01*
X133002063Y-84412206D02*
X135917586Y-81496683D01*
X138457586Y-81496683D02*
X136747281Y-79786378D01*
X128942337Y-103387751D02*
X130837586Y-105283000D01*
X136747281Y-79786378D02*
X134286618Y-79786378D01*
X134286618Y-79786378D02*
X132552052Y-81520944D01*
X132552052Y-81520944D02*
X132552052Y-91586817D01*
X132552052Y-91586817D02*
X128942337Y-95196531D01*
X128942337Y-95196531D02*
X128942337Y-103387751D01*
X140997586Y-81496683D02*
X138837270Y-79336367D01*
X138837270Y-79336367D02*
X134100218Y-79336367D01*
X134100218Y-79336367D02*
X132102041Y-81334544D01*
X132102041Y-81334544D02*
X132102041Y-91400417D01*
X132102041Y-91400417D02*
X128492326Y-95010132D01*
X128492326Y-95010132D02*
X128492326Y-105477740D01*
X128492326Y-105477740D02*
X130837586Y-107823000D01*
D21*
G36*
X129764599Y-80044099D02*
X129599852Y-80290661D01*
X129542000Y-80581500D01*
X129542000Y-90340015D01*
X126154885Y-93727131D01*
X125990138Y-93973693D01*
X125932286Y-94264532D01*
X125932286Y-98162502D01*
X124292623Y-99802165D01*
X109353586Y-99802165D01*
X109062747Y-99860017D01*
X108897900Y-99970164D01*
X108816185Y-100024764D01*
X106767108Y-102073841D01*
X106602361Y-102320403D01*
X106544509Y-102611242D01*
X106544509Y-108063573D01*
X106602361Y-108354412D01*
X106767108Y-108600974D01*
X110400036Y-112233901D01*
X110646597Y-112398648D01*
X110937437Y-112456500D01*
X167007698Y-112456500D01*
X173008099Y-118456901D01*
X173254661Y-118621648D01*
X173545500Y-118679500D01*
X198374000Y-118679500D01*
X198664839Y-118621648D01*
X198911401Y-118456901D01*
X207864901Y-109503401D01*
X208029648Y-109256839D01*
X208087500Y-108966000D01*
X208087500Y-108133801D01*
X208406647Y-107920554D01*
X208728554Y-107438785D01*
X208841593Y-106870500D01*
X208728554Y-106302215D01*
X208406647Y-105820446D01*
X208365048Y-105792650D01*
X208412817Y-105783662D01*
X208628941Y-105644590D01*
X208773931Y-105432390D01*
X208824940Y-105180500D01*
X208824940Y-103480500D01*
X208780662Y-103245183D01*
X208641590Y-103029059D01*
X208429390Y-102884069D01*
X208177500Y-102833060D01*
X206477500Y-102833060D01*
X206242183Y-102877338D01*
X206026059Y-103016410D01*
X205881069Y-103228610D01*
X205830060Y-103480500D01*
X205830060Y-104370728D01*
X204313599Y-105887189D01*
X204148852Y-106133751D01*
X204091000Y-106424590D01*
X204091000Y-110491288D01*
X197872798Y-116709490D01*
X174046702Y-116709490D01*
X170713027Y-113375815D01*
X187491630Y-113375815D01*
X187815980Y-114160800D01*
X188416041Y-114761909D01*
X189200459Y-115087628D01*
X190049815Y-115088370D01*
X190834800Y-114764020D01*
X191287100Y-114312509D01*
X191397997Y-114870029D01*
X191860807Y-115562673D01*
X192553451Y-116025483D01*
X193370480Y-116188000D01*
X194983520Y-116188000D01*
X195800549Y-116025483D01*
X196493193Y-115562673D01*
X196956003Y-114870029D01*
X197012343Y-114586786D01*
X197435909Y-114163959D01*
X197761628Y-113379541D01*
X197762370Y-112530185D01*
X197438020Y-111745200D01*
X196837959Y-111144091D01*
X196053541Y-110818372D01*
X195204185Y-110817630D01*
X194419200Y-111141980D01*
X193818091Y-111742041D01*
X193745026Y-111918000D01*
X193370480Y-111918000D01*
X192553451Y-112080517D01*
X191860807Y-112543327D01*
X191762230Y-112690858D01*
X191762370Y-112530185D01*
X191438020Y-111745200D01*
X190837959Y-111144091D01*
X190053541Y-110818372D01*
X189204185Y-110817630D01*
X188419200Y-111141980D01*
X187818091Y-111742041D01*
X187492372Y-112526459D01*
X187491630Y-113375815D01*
X170713027Y-113375815D01*
X168046301Y-110709089D01*
X167799739Y-110544342D01*
X167508900Y-110486490D01*
X111438639Y-110486490D01*
X109144104Y-108191955D01*
X109386000Y-108240940D01*
X111086000Y-108240940D01*
X111321317Y-108196662D01*
X111537441Y-108057590D01*
X111682431Y-107845390D01*
X111733440Y-107593500D01*
X111733440Y-107503500D01*
X120335320Y-107503500D01*
X120626159Y-107445648D01*
X120872721Y-107280901D01*
X127732326Y-100421296D01*
X127732326Y-105477740D01*
X127790178Y-105768579D01*
X127954925Y-106015141D01*
X129396376Y-107456593D01*
X129323493Y-107823000D01*
X129436532Y-108391285D01*
X129758439Y-108873054D01*
X130240208Y-109194961D01*
X130808493Y-109308000D01*
X130866679Y-109308000D01*
X131434964Y-109194961D01*
X131916733Y-108873054D01*
X132238640Y-108391285D01*
X132351679Y-107823000D01*
X132238640Y-107254715D01*
X131916733Y-106772946D01*
X131587560Y-106553000D01*
X131916733Y-106333054D01*
X132238640Y-105851285D01*
X132351679Y-105283000D01*
X132238640Y-104714715D01*
X131916733Y-104232946D01*
X131612426Y-104029615D01*
X131677672Y-104002656D01*
X132095774Y-103585283D01*
X132322328Y-103039681D01*
X132322843Y-102448911D01*
X132097242Y-101902914D01*
X131679869Y-101484812D01*
X131597586Y-101450645D01*
X131597586Y-97220961D01*
X131597587Y-94252494D01*
X133539464Y-92310617D01*
X133704211Y-92064056D01*
X133762063Y-91773216D01*
X133762063Y-84727008D01*
X134644762Y-83844309D01*
X134482836Y-84234270D01*
X134482338Y-84805148D01*
X134700343Y-85332761D01*
X135103663Y-85736785D01*
X135630895Y-85955711D01*
X136201773Y-85956209D01*
X136255735Y-85933912D01*
X139570856Y-89249033D01*
X139817418Y-89413780D01*
X140108257Y-89471632D01*
X166802637Y-89471632D01*
X167093476Y-89413780D01*
X167340038Y-89249033D01*
X173651178Y-82937893D01*
X174017586Y-83010776D01*
X174585871Y-82897737D01*
X175067640Y-82575830D01*
X175146334Y-82458056D01*
X175146334Y-105164339D01*
X175204186Y-105455178D01*
X175368933Y-105701740D01*
X177757594Y-108090401D01*
X178004156Y-108255148D01*
X178294995Y-108313000D01*
X195792453Y-108313000D01*
X195802169Y-108336515D01*
X196191436Y-108726461D01*
X196700298Y-108937759D01*
X197251285Y-108938240D01*
X197760515Y-108727831D01*
X198150461Y-108338564D01*
X198361759Y-107829702D01*
X198362240Y-107278715D01*
X198151831Y-106769485D01*
X197935687Y-106552964D01*
X198150461Y-106338564D01*
X198361759Y-105829702D01*
X198362236Y-105283000D01*
X199526907Y-105283000D01*
X199639946Y-105851285D01*
X199961853Y-106333054D01*
X200291026Y-106553000D01*
X199961853Y-106772946D01*
X199639946Y-107254715D01*
X199526907Y-107823000D01*
X199639946Y-108391285D01*
X199961853Y-108873054D01*
X200443622Y-109194961D01*
X201011907Y-109308000D01*
X201070093Y-109308000D01*
X201638378Y-109194961D01*
X202120147Y-108873054D01*
X202442054Y-108391285D01*
X202555093Y-107823000D01*
X202442054Y-107254715D01*
X202120147Y-106772946D01*
X201790974Y-106553000D01*
X202120147Y-106333054D01*
X202442054Y-105851285D01*
X202555093Y-105283000D01*
X202442054Y-104714715D01*
X202120147Y-104232946D01*
X201815840Y-104029615D01*
X201881086Y-104002656D01*
X202299188Y-103585283D01*
X202525742Y-103039681D01*
X202526257Y-102448911D01*
X202300656Y-101902914D01*
X201883283Y-101484812D01*
X201337681Y-101258258D01*
X200746911Y-101257743D01*
X200200914Y-101483344D01*
X199782812Y-101900717D01*
X199556258Y-102446319D01*
X199555743Y-103037089D01*
X199781344Y-103583086D01*
X200198717Y-104001188D01*
X200266550Y-104029355D01*
X199961853Y-104232946D01*
X199639946Y-104714715D01*
X199526907Y-105283000D01*
X198362236Y-105283000D01*
X198362240Y-105278715D01*
X198151831Y-104769485D01*
X197762564Y-104379539D01*
X197578414Y-104303073D01*
X197760515Y-104227831D01*
X198150461Y-103838564D01*
X198361759Y-103329702D01*
X198362240Y-102778715D01*
X198151831Y-102269485D01*
X197762564Y-101879539D01*
X197253702Y-101668241D01*
X197131203Y-101668134D01*
X197435909Y-101363959D01*
X197761628Y-100579541D01*
X197762370Y-99730185D01*
X197506629Y-99111244D01*
X231338406Y-99111244D01*
X231481893Y-99832602D01*
X231890510Y-100444140D01*
X231960960Y-100491213D01*
X232034430Y-100564684D01*
X232439959Y-100835650D01*
X232592782Y-100898951D01*
X232686887Y-100937931D01*
X233165242Y-101033082D01*
X233232710Y-101033082D01*
X233298879Y-101046244D01*
X234751178Y-101046244D01*
X234817347Y-101033082D01*
X234884816Y-101033082D01*
X235363170Y-100937931D01*
X235507817Y-100878016D01*
X235610098Y-100835650D01*
X236015627Y-100564683D01*
X236089094Y-100491216D01*
X236159548Y-100444140D01*
X236568165Y-99832602D01*
X236711652Y-99111244D01*
X236568165Y-98389886D01*
X236159548Y-97778348D01*
X236089094Y-97731272D01*
X236015627Y-97657805D01*
X235610098Y-97386838D01*
X235507817Y-97344472D01*
X235363170Y-97284557D01*
X234884816Y-97189406D01*
X234817347Y-97189406D01*
X234751178Y-97176244D01*
X233298879Y-97176244D01*
X233232710Y-97189406D01*
X233165242Y-97189406D01*
X232686887Y-97284557D01*
X232614564Y-97314515D01*
X232439959Y-97386838D01*
X232034430Y-97657804D01*
X231974931Y-97717304D01*
X231960961Y-97731274D01*
X231890510Y-97778348D01*
X231481893Y-98389886D01*
X231338406Y-99111244D01*
X197506629Y-99111244D01*
X197438020Y-98945200D01*
X197012236Y-98518672D01*
X196956003Y-98235971D01*
X196493193Y-97543327D01*
X196245635Y-97377914D01*
X208548357Y-97377914D01*
X208810495Y-97325771D01*
X209032725Y-97177282D01*
X209181214Y-96955052D01*
X209233357Y-96692914D01*
X209233357Y-89955959D01*
X209181214Y-89693821D01*
X209032725Y-89471591D01*
X208810495Y-89323102D01*
X208548357Y-89270959D01*
X194173927Y-89270959D01*
X193911789Y-89323102D01*
X193689559Y-89471591D01*
X193541070Y-89693821D01*
X193488927Y-89955959D01*
X193488927Y-96692914D01*
X193533700Y-96918000D01*
X193370480Y-96918000D01*
X192553451Y-97080517D01*
X191860807Y-97543327D01*
X191397997Y-98235971D01*
X191287012Y-98793929D01*
X190837959Y-98344091D01*
X190053541Y-98018372D01*
X189204185Y-98017630D01*
X188419200Y-98341980D01*
X187818091Y-98942041D01*
X187492372Y-99726459D01*
X187491630Y-100575815D01*
X187815980Y-101360800D01*
X188372209Y-101918000D01*
X184096411Y-101918000D01*
X179143308Y-96964897D01*
X179143308Y-79475488D01*
X179056911Y-79041142D01*
X178810874Y-78672922D01*
X177319635Y-77181683D01*
X188191685Y-77181683D01*
X188191685Y-85986593D01*
X188243828Y-86248731D01*
X188392317Y-86470961D01*
X188614547Y-86619450D01*
X188876685Y-86671593D01*
X228408228Y-86671593D01*
X228408228Y-87941778D01*
X228460371Y-88203916D01*
X228608860Y-88426146D01*
X228831090Y-88574635D01*
X229093228Y-88626778D01*
X238926323Y-88626778D01*
X239188461Y-88574635D01*
X239410691Y-88426146D01*
X239559180Y-88203916D01*
X239611323Y-87941778D01*
X239611323Y-86671593D01*
X243287171Y-86671593D01*
X243287171Y-120315682D01*
X239611323Y-120315682D01*
X239611323Y-119045498D01*
X239559180Y-118783360D01*
X239410691Y-118561130D01*
X239188461Y-118412641D01*
X238926323Y-118360498D01*
X229093228Y-118360498D01*
X228831090Y-118412641D01*
X228608860Y-118561130D01*
X228460371Y-118783360D01*
X228408228Y-119045498D01*
X228408228Y-120315682D01*
X164463260Y-120315682D01*
X164463260Y-119045498D01*
X164411117Y-118783360D01*
X164262628Y-118561130D01*
X164040398Y-118412641D01*
X163778260Y-118360498D01*
X153945165Y-118360498D01*
X153683027Y-118412641D01*
X153460797Y-118561130D01*
X153312308Y-118783360D01*
X153260165Y-119045498D01*
X153260165Y-120315682D01*
X104399416Y-120315682D01*
X104399416Y-119045498D01*
X104347273Y-118783360D01*
X104198784Y-118561130D01*
X103976554Y-118412641D01*
X103714416Y-118360498D01*
X93881321Y-118360498D01*
X93619183Y-118412641D01*
X93396953Y-118561130D01*
X93248464Y-118783360D01*
X93196321Y-119045498D01*
X93196321Y-120315682D01*
X89520473Y-120315682D01*
X89520473Y-99111244D01*
X96767662Y-99111244D01*
X96817443Y-99361512D01*
X96817336Y-99484549D01*
X96864735Y-99599264D01*
X96914955Y-99851736D01*
X97056719Y-100063902D01*
X97103705Y-100177616D01*
X97191396Y-100265460D01*
X97334410Y-100479496D01*
X97546577Y-100621261D01*
X97633501Y-100708337D01*
X97748133Y-100755937D01*
X97962170Y-100898951D01*
X98212435Y-100948732D01*
X98326067Y-100995916D01*
X98450190Y-100996024D01*
X98702662Y-101046244D01*
X98952930Y-100996463D01*
X99075967Y-100996570D01*
X99190682Y-100949171D01*
X99443154Y-100898951D01*
X99655320Y-100757187D01*
X99769034Y-100710201D01*
X99856878Y-100622510D01*
X100070914Y-100479496D01*
X100212679Y-100267329D01*
X100299755Y-100180405D01*
X100347355Y-100065773D01*
X100490369Y-99851736D01*
X100540150Y-99601471D01*
X100587334Y-99487839D01*
X100587442Y-99363716D01*
X100637662Y-99111244D01*
X100587881Y-98860976D01*
X100587988Y-98737939D01*
X100540589Y-98623224D01*
X100490369Y-98370752D01*
X100348605Y-98158586D01*
X100301619Y-98044872D01*
X100213928Y-97957028D01*
X100070914Y-97742992D01*
X99858747Y-97601227D01*
X99771823Y-97514151D01*
X99657191Y-97466551D01*
X99443154Y-97323537D01*
X99192889Y-97273756D01*
X99079257Y-97226572D01*
X98955134Y-97226464D01*
X98702662Y-97176244D01*
X98452394Y-97226025D01*
X98329357Y-97225918D01*
X98214642Y-97273317D01*
X97962170Y-97323537D01*
X97750004Y-97465301D01*
X97636290Y-97512287D01*
X97548446Y-97599978D01*
X97334410Y-97742992D01*
X97192645Y-97955159D01*
X97105569Y-98042083D01*
X97057969Y-98156715D01*
X96914955Y-98370752D01*
X96865174Y-98621017D01*
X96817990Y-98734649D01*
X96817882Y-98858772D01*
X96767662Y-99111244D01*
X89520473Y-99111244D01*
X89520473Y-89955959D01*
X108364691Y-89955959D01*
X108364691Y-96692914D01*
X108416834Y-96955052D01*
X108565323Y-97177282D01*
X108787553Y-97325771D01*
X109049691Y-97377914D01*
X123424121Y-97377914D01*
X123686259Y-97325771D01*
X123908489Y-97177282D01*
X124056978Y-96955052D01*
X124109121Y-96692914D01*
X124109121Y-89955959D01*
X124056978Y-89693821D01*
X123908489Y-89471591D01*
X123686259Y-89323102D01*
X123424121Y-89270959D01*
X109049691Y-89270959D01*
X108787553Y-89323102D01*
X108565323Y-89471591D01*
X108416834Y-89693821D01*
X108364691Y-89955959D01*
X89520473Y-89955959D01*
X89520473Y-86671593D01*
X93196321Y-86671593D01*
X93196321Y-87941778D01*
X93248464Y-88203916D01*
X93396953Y-88426146D01*
X93619183Y-88574635D01*
X93881321Y-88626778D01*
X103714416Y-88626778D01*
X103976554Y-88574635D01*
X104198784Y-88426146D01*
X104347273Y-88203916D01*
X104399416Y-87941778D01*
X104399416Y-86671593D01*
X128678486Y-86671593D01*
X128940624Y-86619450D01*
X129162854Y-86470961D01*
X129311343Y-86248731D01*
X129363486Y-85986593D01*
X129363486Y-77181683D01*
X132627015Y-77181683D01*
X129764599Y-80044099D01*
X129764599Y-80044099D01*
G37*
X129764599Y-80044099D02*
X129599852Y-80290661D01*
X129542000Y-80581500D01*
X129542000Y-90340015D01*
X126154885Y-93727131D01*
X125990138Y-93973693D01*
X125932286Y-94264532D01*
X125932286Y-98162502D01*
X124292623Y-99802165D01*
X109353586Y-99802165D01*
X109062747Y-99860017D01*
X108897900Y-99970164D01*
X108816185Y-100024764D01*
X106767108Y-102073841D01*
X106602361Y-102320403D01*
X106544509Y-102611242D01*
X106544509Y-108063573D01*
X106602361Y-108354412D01*
X106767108Y-108600974D01*
X110400036Y-112233901D01*
X110646597Y-112398648D01*
X110937437Y-112456500D01*
X167007698Y-112456500D01*
X173008099Y-118456901D01*
X173254661Y-118621648D01*
X173545500Y-118679500D01*
X198374000Y-118679500D01*
X198664839Y-118621648D01*
X198911401Y-118456901D01*
X207864901Y-109503401D01*
X208029648Y-109256839D01*
X208087500Y-108966000D01*
X208087500Y-108133801D01*
X208406647Y-107920554D01*
X208728554Y-107438785D01*
X208841593Y-106870500D01*
X208728554Y-106302215D01*
X208406647Y-105820446D01*
X208365048Y-105792650D01*
X208412817Y-105783662D01*
X208628941Y-105644590D01*
X208773931Y-105432390D01*
X208824940Y-105180500D01*
X208824940Y-103480500D01*
X208780662Y-103245183D01*
X208641590Y-103029059D01*
X208429390Y-102884069D01*
X208177500Y-102833060D01*
X206477500Y-102833060D01*
X206242183Y-102877338D01*
X206026059Y-103016410D01*
X205881069Y-103228610D01*
X205830060Y-103480500D01*
X205830060Y-104370728D01*
X204313599Y-105887189D01*
X204148852Y-106133751D01*
X204091000Y-106424590D01*
X204091000Y-110491288D01*
X197872798Y-116709490D01*
X174046702Y-116709490D01*
X170713027Y-113375815D01*
X187491630Y-113375815D01*
X187815980Y-114160800D01*
X188416041Y-114761909D01*
X189200459Y-115087628D01*
X190049815Y-115088370D01*
X190834800Y-114764020D01*
X191287100Y-114312509D01*
X191397997Y-114870029D01*
X191860807Y-115562673D01*
X192553451Y-116025483D01*
X193370480Y-116188000D01*
X194983520Y-116188000D01*
X195800549Y-116025483D01*
X196493193Y-115562673D01*
X196956003Y-114870029D01*
X197012343Y-114586786D01*
X197435909Y-114163959D01*
X197761628Y-113379541D01*
X197762370Y-112530185D01*
X197438020Y-111745200D01*
X196837959Y-111144091D01*
X196053541Y-110818372D01*
X195204185Y-110817630D01*
X194419200Y-111141980D01*
X193818091Y-111742041D01*
X193745026Y-111918000D01*
X193370480Y-111918000D01*
X192553451Y-112080517D01*
X191860807Y-112543327D01*
X191762230Y-112690858D01*
X191762370Y-112530185D01*
X191438020Y-111745200D01*
X190837959Y-111144091D01*
X190053541Y-110818372D01*
X189204185Y-110817630D01*
X188419200Y-111141980D01*
X187818091Y-111742041D01*
X187492372Y-112526459D01*
X187491630Y-113375815D01*
X170713027Y-113375815D01*
X168046301Y-110709089D01*
X167799739Y-110544342D01*
X167508900Y-110486490D01*
X111438639Y-110486490D01*
X109144104Y-108191955D01*
X109386000Y-108240940D01*
X111086000Y-108240940D01*
X111321317Y-108196662D01*
X111537441Y-108057590D01*
X111682431Y-107845390D01*
X111733440Y-107593500D01*
X111733440Y-107503500D01*
X120335320Y-107503500D01*
X120626159Y-107445648D01*
X120872721Y-107280901D01*
X127732326Y-100421296D01*
X127732326Y-105477740D01*
X127790178Y-105768579D01*
X127954925Y-106015141D01*
X129396376Y-107456593D01*
X129323493Y-107823000D01*
X129436532Y-108391285D01*
X129758439Y-108873054D01*
X130240208Y-109194961D01*
X130808493Y-109308000D01*
X130866679Y-109308000D01*
X131434964Y-109194961D01*
X131916733Y-108873054D01*
X132238640Y-108391285D01*
X132351679Y-107823000D01*
X132238640Y-107254715D01*
X131916733Y-106772946D01*
X131587560Y-106553000D01*
X131916733Y-106333054D01*
X132238640Y-105851285D01*
X132351679Y-105283000D01*
X132238640Y-104714715D01*
X131916733Y-104232946D01*
X131612426Y-104029615D01*
X131677672Y-104002656D01*
X132095774Y-103585283D01*
X132322328Y-103039681D01*
X132322843Y-102448911D01*
X132097242Y-101902914D01*
X131679869Y-101484812D01*
X131597586Y-101450645D01*
X131597586Y-97220961D01*
X131597587Y-94252494D01*
X133539464Y-92310617D01*
X133704211Y-92064056D01*
X133762063Y-91773216D01*
X133762063Y-84727008D01*
X134644762Y-83844309D01*
X134482836Y-84234270D01*
X134482338Y-84805148D01*
X134700343Y-85332761D01*
X135103663Y-85736785D01*
X135630895Y-85955711D01*
X136201773Y-85956209D01*
X136255735Y-85933912D01*
X139570856Y-89249033D01*
X139817418Y-89413780D01*
X140108257Y-89471632D01*
X166802637Y-89471632D01*
X167093476Y-89413780D01*
X167340038Y-89249033D01*
X173651178Y-82937893D01*
X174017586Y-83010776D01*
X174585871Y-82897737D01*
X175067640Y-82575830D01*
X175146334Y-82458056D01*
X175146334Y-105164339D01*
X175204186Y-105455178D01*
X175368933Y-105701740D01*
X177757594Y-108090401D01*
X178004156Y-108255148D01*
X178294995Y-108313000D01*
X195792453Y-108313000D01*
X195802169Y-108336515D01*
X196191436Y-108726461D01*
X196700298Y-108937759D01*
X197251285Y-108938240D01*
X197760515Y-108727831D01*
X198150461Y-108338564D01*
X198361759Y-107829702D01*
X198362240Y-107278715D01*
X198151831Y-106769485D01*
X197935687Y-106552964D01*
X198150461Y-106338564D01*
X198361759Y-105829702D01*
X198362236Y-105283000D01*
X199526907Y-105283000D01*
X199639946Y-105851285D01*
X199961853Y-106333054D01*
X200291026Y-106553000D01*
X199961853Y-106772946D01*
X199639946Y-107254715D01*
X199526907Y-107823000D01*
X199639946Y-108391285D01*
X199961853Y-108873054D01*
X200443622Y-109194961D01*
X201011907Y-109308000D01*
X201070093Y-109308000D01*
X201638378Y-109194961D01*
X202120147Y-108873054D01*
X202442054Y-108391285D01*
X202555093Y-107823000D01*
X202442054Y-107254715D01*
X202120147Y-106772946D01*
X201790974Y-106553000D01*
X202120147Y-106333054D01*
X202442054Y-105851285D01*
X202555093Y-105283000D01*
X202442054Y-104714715D01*
X202120147Y-104232946D01*
X201815840Y-104029615D01*
X201881086Y-104002656D01*
X202299188Y-103585283D01*
X202525742Y-103039681D01*
X202526257Y-102448911D01*
X202300656Y-101902914D01*
X201883283Y-101484812D01*
X201337681Y-101258258D01*
X200746911Y-101257743D01*
X200200914Y-101483344D01*
X199782812Y-101900717D01*
X199556258Y-102446319D01*
X199555743Y-103037089D01*
X199781344Y-103583086D01*
X200198717Y-104001188D01*
X200266550Y-104029355D01*
X199961853Y-104232946D01*
X199639946Y-104714715D01*
X199526907Y-105283000D01*
X198362236Y-105283000D01*
X198362240Y-105278715D01*
X198151831Y-104769485D01*
X197762564Y-104379539D01*
X197578414Y-104303073D01*
X197760515Y-104227831D01*
X198150461Y-103838564D01*
X198361759Y-103329702D01*
X198362240Y-102778715D01*
X198151831Y-102269485D01*
X197762564Y-101879539D01*
X197253702Y-101668241D01*
X197131203Y-101668134D01*
X197435909Y-101363959D01*
X197761628Y-100579541D01*
X197762370Y-99730185D01*
X197506629Y-99111244D01*
X231338406Y-99111244D01*
X231481893Y-99832602D01*
X231890510Y-100444140D01*
X231960960Y-100491213D01*
X232034430Y-100564684D01*
X232439959Y-100835650D01*
X232592782Y-100898951D01*
X232686887Y-100937931D01*
X233165242Y-101033082D01*
X233232710Y-101033082D01*
X233298879Y-101046244D01*
X234751178Y-101046244D01*
X234817347Y-101033082D01*
X234884816Y-101033082D01*
X235363170Y-100937931D01*
X235507817Y-100878016D01*
X235610098Y-100835650D01*
X236015627Y-100564683D01*
X236089094Y-100491216D01*
X236159548Y-100444140D01*
X236568165Y-99832602D01*
X236711652Y-99111244D01*
X236568165Y-98389886D01*
X236159548Y-97778348D01*
X236089094Y-97731272D01*
X236015627Y-97657805D01*
X235610098Y-97386838D01*
X235507817Y-97344472D01*
X235363170Y-97284557D01*
X234884816Y-97189406D01*
X234817347Y-97189406D01*
X234751178Y-97176244D01*
X233298879Y-97176244D01*
X233232710Y-97189406D01*
X233165242Y-97189406D01*
X232686887Y-97284557D01*
X232614564Y-97314515D01*
X232439959Y-97386838D01*
X232034430Y-97657804D01*
X231974931Y-97717304D01*
X231960961Y-97731274D01*
X231890510Y-97778348D01*
X231481893Y-98389886D01*
X231338406Y-99111244D01*
X197506629Y-99111244D01*
X197438020Y-98945200D01*
X197012236Y-98518672D01*
X196956003Y-98235971D01*
X196493193Y-97543327D01*
X196245635Y-97377914D01*
X208548357Y-97377914D01*
X208810495Y-97325771D01*
X209032725Y-97177282D01*
X209181214Y-96955052D01*
X209233357Y-96692914D01*
X209233357Y-89955959D01*
X209181214Y-89693821D01*
X209032725Y-89471591D01*
X208810495Y-89323102D01*
X208548357Y-89270959D01*
X194173927Y-89270959D01*
X193911789Y-89323102D01*
X193689559Y-89471591D01*
X193541070Y-89693821D01*
X193488927Y-89955959D01*
X193488927Y-96692914D01*
X193533700Y-96918000D01*
X193370480Y-96918000D01*
X192553451Y-97080517D01*
X191860807Y-97543327D01*
X191397997Y-98235971D01*
X191287012Y-98793929D01*
X190837959Y-98344091D01*
X190053541Y-98018372D01*
X189204185Y-98017630D01*
X188419200Y-98341980D01*
X187818091Y-98942041D01*
X187492372Y-99726459D01*
X187491630Y-100575815D01*
X187815980Y-101360800D01*
X188372209Y-101918000D01*
X184096411Y-101918000D01*
X179143308Y-96964897D01*
X179143308Y-79475488D01*
X179056911Y-79041142D01*
X178810874Y-78672922D01*
X177319635Y-77181683D01*
X188191685Y-77181683D01*
X188191685Y-85986593D01*
X188243828Y-86248731D01*
X188392317Y-86470961D01*
X188614547Y-86619450D01*
X188876685Y-86671593D01*
X228408228Y-86671593D01*
X228408228Y-87941778D01*
X228460371Y-88203916D01*
X228608860Y-88426146D01*
X228831090Y-88574635D01*
X229093228Y-88626778D01*
X238926323Y-88626778D01*
X239188461Y-88574635D01*
X239410691Y-88426146D01*
X239559180Y-88203916D01*
X239611323Y-87941778D01*
X239611323Y-86671593D01*
X243287171Y-86671593D01*
X243287171Y-120315682D01*
X239611323Y-120315682D01*
X239611323Y-119045498D01*
X239559180Y-118783360D01*
X239410691Y-118561130D01*
X239188461Y-118412641D01*
X238926323Y-118360498D01*
X229093228Y-118360498D01*
X228831090Y-118412641D01*
X228608860Y-118561130D01*
X228460371Y-118783360D01*
X228408228Y-119045498D01*
X228408228Y-120315682D01*
X164463260Y-120315682D01*
X164463260Y-119045498D01*
X164411117Y-118783360D01*
X164262628Y-118561130D01*
X164040398Y-118412641D01*
X163778260Y-118360498D01*
X153945165Y-118360498D01*
X153683027Y-118412641D01*
X153460797Y-118561130D01*
X153312308Y-118783360D01*
X153260165Y-119045498D01*
X153260165Y-120315682D01*
X104399416Y-120315682D01*
X104399416Y-119045498D01*
X104347273Y-118783360D01*
X104198784Y-118561130D01*
X103976554Y-118412641D01*
X103714416Y-118360498D01*
X93881321Y-118360498D01*
X93619183Y-118412641D01*
X93396953Y-118561130D01*
X93248464Y-118783360D01*
X93196321Y-119045498D01*
X93196321Y-120315682D01*
X89520473Y-120315682D01*
X89520473Y-99111244D01*
X96767662Y-99111244D01*
X96817443Y-99361512D01*
X96817336Y-99484549D01*
X96864735Y-99599264D01*
X96914955Y-99851736D01*
X97056719Y-100063902D01*
X97103705Y-100177616D01*
X97191396Y-100265460D01*
X97334410Y-100479496D01*
X97546577Y-100621261D01*
X97633501Y-100708337D01*
X97748133Y-100755937D01*
X97962170Y-100898951D01*
X98212435Y-100948732D01*
X98326067Y-100995916D01*
X98450190Y-100996024D01*
X98702662Y-101046244D01*
X98952930Y-100996463D01*
X99075967Y-100996570D01*
X99190682Y-100949171D01*
X99443154Y-100898951D01*
X99655320Y-100757187D01*
X99769034Y-100710201D01*
X99856878Y-100622510D01*
X100070914Y-100479496D01*
X100212679Y-100267329D01*
X100299755Y-100180405D01*
X100347355Y-100065773D01*
X100490369Y-99851736D01*
X100540150Y-99601471D01*
X100587334Y-99487839D01*
X100587442Y-99363716D01*
X100637662Y-99111244D01*
X100587881Y-98860976D01*
X100587988Y-98737939D01*
X100540589Y-98623224D01*
X100490369Y-98370752D01*
X100348605Y-98158586D01*
X100301619Y-98044872D01*
X100213928Y-97957028D01*
X100070914Y-97742992D01*
X99858747Y-97601227D01*
X99771823Y-97514151D01*
X99657191Y-97466551D01*
X99443154Y-97323537D01*
X99192889Y-97273756D01*
X99079257Y-97226572D01*
X98955134Y-97226464D01*
X98702662Y-97176244D01*
X98452394Y-97226025D01*
X98329357Y-97225918D01*
X98214642Y-97273317D01*
X97962170Y-97323537D01*
X97750004Y-97465301D01*
X97636290Y-97512287D01*
X97548446Y-97599978D01*
X97334410Y-97742992D01*
X97192645Y-97955159D01*
X97105569Y-98042083D01*
X97057969Y-98156715D01*
X96914955Y-98370752D01*
X96865174Y-98621017D01*
X96817990Y-98734649D01*
X96817882Y-98858772D01*
X96767662Y-99111244D01*
X89520473Y-99111244D01*
X89520473Y-89955959D01*
X108364691Y-89955959D01*
X108364691Y-96692914D01*
X108416834Y-96955052D01*
X108565323Y-97177282D01*
X108787553Y-97325771D01*
X109049691Y-97377914D01*
X123424121Y-97377914D01*
X123686259Y-97325771D01*
X123908489Y-97177282D01*
X124056978Y-96955052D01*
X124109121Y-96692914D01*
X124109121Y-89955959D01*
X124056978Y-89693821D01*
X123908489Y-89471591D01*
X123686259Y-89323102D01*
X123424121Y-89270959D01*
X109049691Y-89270959D01*
X108787553Y-89323102D01*
X108565323Y-89471591D01*
X108416834Y-89693821D01*
X108364691Y-89955959D01*
X89520473Y-89955959D01*
X89520473Y-86671593D01*
X93196321Y-86671593D01*
X93196321Y-87941778D01*
X93248464Y-88203916D01*
X93396953Y-88426146D01*
X93619183Y-88574635D01*
X93881321Y-88626778D01*
X103714416Y-88626778D01*
X103976554Y-88574635D01*
X104198784Y-88426146D01*
X104347273Y-88203916D01*
X104399416Y-87941778D01*
X104399416Y-86671593D01*
X128678486Y-86671593D01*
X128940624Y-86619450D01*
X129162854Y-86470961D01*
X129311343Y-86248731D01*
X129363486Y-85986593D01*
X129363486Y-77181683D01*
X132627015Y-77181683D01*
X129764599Y-80044099D01*
G36*
X165347532Y-80417536D02*
X165025625Y-80899305D01*
X164912586Y-81467590D01*
X164912586Y-81525776D01*
X164975815Y-81843652D01*
X160217868Y-86601599D01*
X146693026Y-86601599D01*
X144917490Y-84826063D01*
X144972586Y-84549074D01*
X144972586Y-84492848D01*
X144863353Y-83943697D01*
X144552284Y-83478150D01*
X144086737Y-83167081D01*
X143537586Y-83057848D01*
X142988435Y-83167081D01*
X142522888Y-83478150D01*
X142267586Y-83860236D01*
X142012284Y-83478150D01*
X141546737Y-83167081D01*
X140997586Y-83057848D01*
X140448435Y-83167081D01*
X139982888Y-83478150D01*
X139727586Y-83860236D01*
X139472284Y-83478150D01*
X139006737Y-83167081D01*
X138457586Y-83057848D01*
X137908435Y-83167081D01*
X137442888Y-83478150D01*
X137193559Y-83851297D01*
X137134829Y-83709161D01*
X136731509Y-83305137D01*
X136204277Y-83086211D01*
X135633399Y-83085713D01*
X135241379Y-83247692D01*
X135540877Y-82948194D01*
X135620905Y-82981425D01*
X136211675Y-82981940D01*
X136757672Y-82756339D01*
X137175774Y-82338966D01*
X137203941Y-82271133D01*
X137407532Y-82575830D01*
X137889301Y-82897737D01*
X138457586Y-83010776D01*
X139025871Y-82897737D01*
X139507640Y-82575830D01*
X139727586Y-82246657D01*
X139947532Y-82575830D01*
X140429301Y-82897737D01*
X140997586Y-83010776D01*
X141565871Y-82897737D01*
X142047640Y-82575830D01*
X142250971Y-82271523D01*
X142277930Y-82336769D01*
X142695303Y-82754871D01*
X143240905Y-82981425D01*
X143831675Y-82981940D01*
X144377672Y-82756339D01*
X144795774Y-82338966D01*
X144823941Y-82271133D01*
X145027532Y-82575830D01*
X145509301Y-82897737D01*
X146077586Y-83010776D01*
X146645871Y-82897737D01*
X147127640Y-82575830D01*
X147347586Y-82246657D01*
X147567532Y-82575830D01*
X148049301Y-82897737D01*
X148617586Y-83010776D01*
X149185871Y-82897737D01*
X149667640Y-82575830D01*
X149887586Y-82246657D01*
X150107532Y-82575830D01*
X150589301Y-82897737D01*
X151157586Y-83010776D01*
X151725871Y-82897737D01*
X152207640Y-82575830D01*
X152427586Y-82246657D01*
X152647532Y-82575830D01*
X153129301Y-82897737D01*
X153697586Y-83010776D01*
X154265871Y-82897737D01*
X154747640Y-82575830D01*
X154967586Y-82246657D01*
X155187532Y-82575830D01*
X155669301Y-82897737D01*
X156237586Y-83010776D01*
X156805871Y-82897737D01*
X157287640Y-82575830D01*
X157507586Y-82246657D01*
X157727532Y-82575830D01*
X158209301Y-82897737D01*
X158777586Y-83010776D01*
X159345871Y-82897737D01*
X159827640Y-82575830D01*
X160149547Y-82094061D01*
X160262586Y-81525776D01*
X160262586Y-81467590D01*
X160199357Y-81149714D01*
X160955696Y-80393375D01*
X165383692Y-80393375D01*
X165347532Y-80417536D01*
X165347532Y-80417536D01*
G37*
X165347532Y-80417536D02*
X165025625Y-80899305D01*
X164912586Y-81467590D01*
X164912586Y-81525776D01*
X164975815Y-81843652D01*
X160217868Y-86601599D01*
X146693026Y-86601599D01*
X144917490Y-84826063D01*
X144972586Y-84549074D01*
X144972586Y-84492848D01*
X144863353Y-83943697D01*
X144552284Y-83478150D01*
X144086737Y-83167081D01*
X143537586Y-83057848D01*
X142988435Y-83167081D01*
X142522888Y-83478150D01*
X142267586Y-83860236D01*
X142012284Y-83478150D01*
X141546737Y-83167081D01*
X140997586Y-83057848D01*
X140448435Y-83167081D01*
X139982888Y-83478150D01*
X139727586Y-83860236D01*
X139472284Y-83478150D01*
X139006737Y-83167081D01*
X138457586Y-83057848D01*
X137908435Y-83167081D01*
X137442888Y-83478150D01*
X137193559Y-83851297D01*
X137134829Y-83709161D01*
X136731509Y-83305137D01*
X136204277Y-83086211D01*
X135633399Y-83085713D01*
X135241379Y-83247692D01*
X135540877Y-82948194D01*
X135620905Y-82981425D01*
X136211675Y-82981940D01*
X136757672Y-82756339D01*
X137175774Y-82338966D01*
X137203941Y-82271133D01*
X137407532Y-82575830D01*
X137889301Y-82897737D01*
X138457586Y-83010776D01*
X139025871Y-82897737D01*
X139507640Y-82575830D01*
X139727586Y-82246657D01*
X139947532Y-82575830D01*
X140429301Y-82897737D01*
X140997586Y-83010776D01*
X141565871Y-82897737D01*
X142047640Y-82575830D01*
X142250971Y-82271523D01*
X142277930Y-82336769D01*
X142695303Y-82754871D01*
X143240905Y-82981425D01*
X143831675Y-82981940D01*
X144377672Y-82756339D01*
X144795774Y-82338966D01*
X144823941Y-82271133D01*
X145027532Y-82575830D01*
X145509301Y-82897737D01*
X146077586Y-83010776D01*
X146645871Y-82897737D01*
X147127640Y-82575830D01*
X147347586Y-82246657D01*
X147567532Y-82575830D01*
X148049301Y-82897737D01*
X148617586Y-83010776D01*
X149185871Y-82897737D01*
X149667640Y-82575830D01*
X149887586Y-82246657D01*
X150107532Y-82575830D01*
X150589301Y-82897737D01*
X151157586Y-83010776D01*
X151725871Y-82897737D01*
X152207640Y-82575830D01*
X152427586Y-82246657D01*
X152647532Y-82575830D01*
X153129301Y-82897737D01*
X153697586Y-83010776D01*
X154265871Y-82897737D01*
X154747640Y-82575830D01*
X154967586Y-82246657D01*
X155187532Y-82575830D01*
X155669301Y-82897737D01*
X156237586Y-83010776D01*
X156805871Y-82897737D01*
X157287640Y-82575830D01*
X157507586Y-82246657D01*
X157727532Y-82575830D01*
X158209301Y-82897737D01*
X158777586Y-83010776D01*
X159345871Y-82897737D01*
X159827640Y-82575830D01*
X160149547Y-82094061D01*
X160262586Y-81525776D01*
X160262586Y-81467590D01*
X160199357Y-81149714D01*
X160955696Y-80393375D01*
X165383692Y-80393375D01*
X165347532Y-80417536D01*
M02*
