G04 #@! TF.FileFunction,Profile,NP*
%FSLAX46Y46*%
G04 Gerber Fmt 4.6, Leading zero omitted, Abs format (unit mm)*
G04 Created by KiCad (PCBNEW 4.0.6) date 05/08/17 22:23:47*
%MOMM*%
%LPD*%
G01*
G04 APERTURE LIST*
%ADD10C,0.100000*%
G04 APERTURE END LIST*
D10*
X229093228Y-119045498D02*
X238926323Y-119045498D01*
X229093228Y-119045498D02*
X229093228Y-121000682D01*
X238926323Y-119045498D02*
X238926323Y-121000682D01*
X153945165Y-119045498D02*
X163778260Y-119045498D01*
X153945165Y-119045498D02*
X153945165Y-121000682D01*
X188876685Y-85986593D02*
X229093228Y-85986593D01*
X103714416Y-85986593D02*
X128678486Y-85986593D01*
X88835473Y-85986593D02*
X93881321Y-85986593D01*
X194173927Y-96692914D02*
X194173927Y-89955959D01*
X194173927Y-89955959D02*
X208548357Y-89955959D01*
X208548357Y-96692914D02*
X208548357Y-89955959D01*
X194173927Y-96692914D02*
X208548357Y-96692914D01*
X109049691Y-96692914D02*
X109049691Y-89955959D01*
X109049691Y-89955959D02*
X123424121Y-89955959D01*
X123424121Y-96692914D02*
X123424121Y-89955959D01*
X109049691Y-96692914D02*
X123424121Y-96692914D01*
X99952662Y-99111244D02*
G75*
G03X99952662Y-99111244I-1250000J0D01*
G01*
X128678486Y-85986593D02*
X128678486Y-76496683D01*
X188876685Y-85986593D02*
X188876685Y-76496683D01*
X238926323Y-87941778D02*
X238926323Y-85986593D01*
X229093228Y-87941778D02*
X238926323Y-87941778D01*
X229093228Y-85986593D02*
X229093228Y-87941778D01*
X103714416Y-87941778D02*
X103714416Y-85986593D01*
X93881321Y-87941778D02*
X93881321Y-85986593D01*
X93881321Y-87941778D02*
X103714416Y-87941778D01*
X103714416Y-119045498D02*
X103714416Y-121000682D01*
X93881321Y-119045498D02*
X93881321Y-121000682D01*
X93881321Y-119045498D02*
X103714416Y-119045498D01*
X88835473Y-85986593D02*
X88835473Y-121000682D01*
X243972171Y-85986593D02*
X243972171Y-121000682D01*
X238926323Y-85986593D02*
X243972171Y-85986593D01*
X233298879Y-100361244D02*
G75*
G02X233298879Y-97861244I0J1250000D01*
G01*
X234751178Y-97861244D02*
G75*
G02X234751178Y-100361244I0J-1250000D01*
G01*
X233298879Y-97861244D02*
X234751178Y-97861244D01*
X233298879Y-100361244D02*
X234751178Y-100361244D01*
X238926323Y-121000682D02*
X243972171Y-121000682D01*
X163778260Y-121000682D02*
X229093228Y-121000682D01*
X103714416Y-121000682D02*
X153945165Y-121000682D01*
X88835473Y-121000682D02*
X93881321Y-121000682D01*
X128678486Y-76496683D02*
X188876685Y-76496683D01*
X163778260Y-119045498D02*
X163778260Y-121000682D01*
M02*
