G04 #@! TF.FileFunction,Soldermask,Bot*
%FSLAX46Y46*%
G04 Gerber Fmt 4.6, Leading zero omitted, Abs format (unit mm)*
G04 Created by KiCad (PCBNEW 4.0.6) date 05/08/17 22:23:47*
%MOMM*%
%LPD*%
G01*
G04 APERTURE LIST*
%ADD10C,0.100000*%
%ADD11C,1.900000*%
%ADD12C,3.400000*%
%ADD13O,4.900000X3.400000*%
%ADD14C,2.100000*%
%ADD15O,2.100000X2.100000*%
%ADD16R,2.100000X2.100000*%
%ADD17C,2.000000*%
%ADD18O,2.000000X2.000000*%
G04 APERTURE END LIST*
D10*
D11*
X196977000Y-110053000D03*
X196977000Y-107553000D03*
X196977000Y-105553000D03*
X196977000Y-103053000D03*
D12*
X195627000Y-112953000D03*
X195627000Y-100153000D03*
X189627000Y-112953000D03*
X189627000Y-100153000D03*
D11*
X196977000Y-110053000D03*
X196977000Y-107553000D03*
X196977000Y-105553000D03*
X196977000Y-103053000D03*
D13*
X194177000Y-114053000D03*
X194177000Y-99053000D03*
D14*
X130837586Y-102743000D03*
D15*
X130837586Y-105283000D03*
X130837586Y-107823000D03*
D14*
X135917586Y-81496683D03*
D15*
X138457586Y-81496683D03*
X140997586Y-81496683D03*
D14*
X143537586Y-81496683D03*
D15*
X146077586Y-81496683D03*
X148617586Y-81496683D03*
X151157586Y-81496683D03*
X153697586Y-81496683D03*
X156237586Y-81496683D03*
X158777586Y-81496683D03*
X161317586Y-81496683D03*
X163857586Y-81496683D03*
X166397586Y-81496683D03*
X168937586Y-81496683D03*
X171477586Y-81496683D03*
X174017586Y-81496683D03*
D14*
X201041000Y-102743000D03*
D15*
X201041000Y-105283000D03*
X201041000Y-107823000D03*
X201041000Y-110363000D03*
D16*
X207327500Y-104330500D03*
D15*
X207327500Y-106870500D03*
D16*
X110236000Y-106743500D03*
D15*
X110236000Y-104203500D03*
D17*
X135917586Y-84520961D03*
D18*
X143537586Y-92140961D03*
X138457586Y-84520961D03*
X140997586Y-92140961D03*
X140997586Y-84520961D03*
X138457586Y-92140961D03*
X143537586Y-84520961D03*
X135917586Y-92140961D03*
M02*
